<mxfile host="app.diagrams.net" modified="2023-09-16T09:08:18.301Z" agent="Mozilla/5.0 (Macintosh; Intel Mac OS X 10_15_7) AppleWebKit/605.1.15 (KHTML, like Gecko) Version/16.6 Safari/605.1.15" etag="EaydrGottkb7B-22Uprx" version="21.7.5" type="github">
  <diagram id="C5RBs43oDa-KdzZeNtuy" name="Page-1">
    <mxGraphModel dx="931" dy="763" grid="1" gridSize="10" guides="1" tooltips="1" connect="1" arrows="1" fold="1" page="1" pageScale="1" pageWidth="827" pageHeight="1169" math="0" shadow="0">
      <root>
        <mxCell id="WIyWlLk6GJQsqaUBKTNV-0" />
        <mxCell id="WIyWlLk6GJQsqaUBKTNV-1" parent="WIyWlLk6GJQsqaUBKTNV-0" />
        <mxCell id="WIyWlLk6GJQsqaUBKTNV-3" value="Start" style="rounded=1;whiteSpace=wrap;html=1;fontSize=12;glass=0;strokeWidth=1;shadow=0;" parent="WIyWlLk6GJQsqaUBKTNV-1" vertex="1">
          <mxGeometry x="160" y="10" width="120" height="40" as="geometry" />
        </mxCell>
        <mxCell id="WIyWlLk6GJQsqaUBKTNV-4" value="Yes" style="rounded=0;html=1;jettySize=auto;orthogonalLoop=1;fontSize=11;endArrow=block;endFill=0;endSize=8;strokeWidth=1;shadow=0;labelBackgroundColor=none;edgeStyle=orthogonalEdgeStyle;entryX=0.5;entryY=0;entryDx=0;entryDy=0;" parent="WIyWlLk6GJQsqaUBKTNV-1" source="WIyWlLk6GJQsqaUBKTNV-6" target="ZduWQB8lW15BRBbbQiqI-3" edge="1">
          <mxGeometry y="20" relative="1" as="geometry">
            <mxPoint as="offset" />
            <mxPoint x="220" y="275" as="targetPoint" />
          </mxGeometry>
        </mxCell>
        <mxCell id="WIyWlLk6GJQsqaUBKTNV-5" value="No" style="edgeStyle=orthogonalEdgeStyle;rounded=0;html=1;jettySize=auto;orthogonalLoop=1;fontSize=11;endArrow=block;endFill=0;endSize=8;strokeWidth=1;shadow=0;labelBackgroundColor=none;entryX=1;entryY=0.5;entryDx=0;entryDy=0;exitX=1;exitY=0.5;exitDx=0;exitDy=0;" parent="WIyWlLk6GJQsqaUBKTNV-1" source="WIyWlLk6GJQsqaUBKTNV-6" target="ZduWQB8lW15BRBbbQiqI-0" edge="1">
          <mxGeometry x="-0.8017" y="-10" relative="1" as="geometry">
            <mxPoint as="offset" />
            <mxPoint x="330" y="345" as="targetPoint" />
            <Array as="points">
              <mxPoint x="330" y="345" />
              <mxPoint x="330" y="200" />
            </Array>
            <mxPoint x="320" y="355" as="sourcePoint" />
          </mxGeometry>
        </mxCell>
        <mxCell id="WIyWlLk6GJQsqaUBKTNV-6" value="Day 100?" style="rhombus;whiteSpace=wrap;html=1;shadow=0;fontFamily=Helvetica;fontSize=12;align=center;strokeWidth=1;spacing=6;spacingTop=-4;" parent="WIyWlLk6GJQsqaUBKTNV-1" vertex="1">
          <mxGeometry x="170" y="305" width="100" height="80" as="geometry" />
        </mxCell>
        <mxCell id="ZduWQB8lW15BRBbbQiqI-0" value="Take temperature" style="rounded=0;whiteSpace=wrap;html=1;fontSize=16;" parent="WIyWlLk6GJQsqaUBKTNV-1" vertex="1">
          <mxGeometry x="170" y="165" width="100" height="70" as="geometry" />
        </mxCell>
        <mxCell id="ZduWQB8lW15BRBbbQiqI-2" value="" style="endArrow=classic;html=1;rounded=0;fontSize=12;startSize=8;endSize=8;curved=1;exitX=0.5;exitY=1;exitDx=0;exitDy=0;entryX=0.5;entryY=0;entryDx=0;entryDy=0;" parent="WIyWlLk6GJQsqaUBKTNV-1" source="ZduWQB8lW15BRBbbQiqI-0" target="WIyWlLk6GJQsqaUBKTNV-6" edge="1">
          <mxGeometry width="50" height="50" relative="1" as="geometry">
            <mxPoint x="230" y="135" as="sourcePoint" />
            <mxPoint x="280" y="85" as="targetPoint" />
          </mxGeometry>
        </mxCell>
        <mxCell id="ZduWQB8lW15BRBbbQiqI-3" value="Output number of days below 20C" style="rounded=0;whiteSpace=wrap;html=1;fontSize=16;" parent="WIyWlLk6GJQsqaUBKTNV-1" vertex="1">
          <mxGeometry x="160" y="425" width="120" height="60" as="geometry" />
        </mxCell>
        <mxCell id="ZduWQB8lW15BRBbbQiqI-4" value="" style="endArrow=classic;html=1;rounded=0;fontSize=12;startSize=8;endSize=8;curved=1;exitX=0.5;exitY=1;exitDx=0;exitDy=0;" parent="WIyWlLk6GJQsqaUBKTNV-1" source="ZduWQB8lW15BRBbbQiqI-3" target="ZduWQB8lW15BRBbbQiqI-5" edge="1">
          <mxGeometry width="50" height="50" relative="1" as="geometry">
            <mxPoint x="200" y="465" as="sourcePoint" />
            <mxPoint x="220" y="425" as="targetPoint" />
          </mxGeometry>
        </mxCell>
        <mxCell id="vvEx3FmJS0pV72Blualy-6" style="edgeStyle=orthogonalEdgeStyle;rounded=0;orthogonalLoop=1;jettySize=auto;html=1;" edge="1" parent="WIyWlLk6GJQsqaUBKTNV-1" source="ZduWQB8lW15BRBbbQiqI-5" target="vvEx3FmJS0pV72Blualy-5">
          <mxGeometry relative="1" as="geometry" />
        </mxCell>
        <mxCell id="ZduWQB8lW15BRBbbQiqI-5" value="&lt;font style=&quot;font-size: 14px;&quot;&gt;List days when temperature was 20C or more&lt;/font&gt;" style="rounded=0;whiteSpace=wrap;html=1;fontSize=16;" parent="WIyWlLk6GJQsqaUBKTNV-1" vertex="1">
          <mxGeometry x="160" y="525" width="120" height="60" as="geometry" />
        </mxCell>
        <mxCell id="vvEx3FmJS0pV72Blualy-0" value="SET Days = 0" style="rounded=1;whiteSpace=wrap;html=1;absoluteArcSize=1;arcSize=14;strokeWidth=2;" vertex="1" parent="WIyWlLk6GJQsqaUBKTNV-1">
          <mxGeometry x="170" y="80" width="100" height="40" as="geometry" />
        </mxCell>
        <mxCell id="vvEx3FmJS0pV72Blualy-3" value="" style="endArrow=classic;html=1;rounded=0;exitX=0.5;exitY=1;exitDx=0;exitDy=0;entryX=0.5;entryY=0;entryDx=0;entryDy=0;" edge="1" parent="WIyWlLk6GJQsqaUBKTNV-1" source="WIyWlLk6GJQsqaUBKTNV-3" target="vvEx3FmJS0pV72Blualy-0">
          <mxGeometry width="50" height="50" relative="1" as="geometry">
            <mxPoint x="300" y="140" as="sourcePoint" />
            <mxPoint x="350" y="90" as="targetPoint" />
          </mxGeometry>
        </mxCell>
        <mxCell id="vvEx3FmJS0pV72Blualy-4" value="" style="endArrow=classic;html=1;rounded=0;exitX=0.5;exitY=1;exitDx=0;exitDy=0;entryX=0.5;entryY=0;entryDx=0;entryDy=0;" edge="1" parent="WIyWlLk6GJQsqaUBKTNV-1" source="vvEx3FmJS0pV72Blualy-0" target="ZduWQB8lW15BRBbbQiqI-0">
          <mxGeometry width="50" height="50" relative="1" as="geometry">
            <mxPoint x="70" y="210" as="sourcePoint" />
            <mxPoint x="120" y="160" as="targetPoint" />
          </mxGeometry>
        </mxCell>
        <mxCell id="vvEx3FmJS0pV72Blualy-5" value="END&lt;br&gt;" style="strokeWidth=2;html=1;shape=mxgraph.flowchart.terminator;whiteSpace=wrap;" vertex="1" parent="WIyWlLk6GJQsqaUBKTNV-1">
          <mxGeometry x="170" y="660" width="100" height="60" as="geometry" />
        </mxCell>
      </root>
    </mxGraphModel>
  </diagram>
</mxfile>
